<?xml version="1.0" standalone="no"?>
<!DOCTYPE svg PUBLIC "-//W3C//DTD SVG 20010904//EN"
 "http://www.w3.org/TR/2001/REC-SVG-20010904/DTD/svg10.dtd">
<svg version="1.0" xmlns="http://www.w3.org/2000/svg"
 width="340.000000pt" height="116.000000pt" viewBox="0 0 340.000000 116.000000"
 preserveAspectRatio="xMidYMid meet">

<g transform="translate(0.000000,116.000000) scale(0.100000,-0.100000)"
fill="#000000" stroke="none">
<path d="M1930 965 c0 -78 2 -85 20 -85 13 0 20 7 20 18 0 11 8 26 18 35 17
16 19 15 35 -18 13 -26 23 -35 42 -35 31 0 31 1 -2 61 l-26 49 28 30 29 30
-31 0 c-22 0 -38 -9 -56 -30 -14 -16 -28 -30 -31 -30 -3 0 -6 14 -6 30 0 23
-4 30 -20 30 -18 0 -20 -7 -20 -85z"/>
<path d="M756 1025 c-331 -63 -581 -321 -635 -655 -13 -78 -14 -110 -3 -110 4
0 13 41 20 92 16 118 48 209 108 304 177 284 508 418 834 337 91 -22 158 -53
246 -114 179 -124 301 -330 320 -543 4 -42 11 -76 17 -76 12 0 2 113 -19 195
-8 33 -35 101 -59 151 -71 148 -222 294 -371 360 -144 63 -316 85 -458 59z"/>
<path d="M2140 984 c-46 -55 25 -138 75 -88 21 21 13 29 -14 12 -15 -9 -26
-10 -38 -2 -34 21 -26 34 21 34 47 0 54 7 36 41 -13 23 -62 26 -80 3z m54 0
c28 -11 17 -24 -20 -24 -31 0 -35 2 -24 15 14 17 21 18 44 9z"/>
<path d="M2281 935 l2 -60 6 47 c8 53 22 74 45 65 11 -5 16 -20 16 -51 0 -25
5 -48 11 -51 7 -5 9 13 7 52 l-3 58 -42 0 -43 1 1 -61z"/>
<path d="M2424 985 c2 -11 10 -42 17 -68 13 -46 12 -50 -6 -64 -20 -15 -20
-15 0 -11 18 3 46 56 70 136 13 44 -12 21 -27 -25 l-15 -48 -12 30 c-6 17 -16
39 -21 50 l-11 20 5 -20z"/>
<path d="M2560 985 c-15 -18 -7 -19 20 -3 16 10 23 10 37 -4 18 -19 16 -20
-39 -32 -21 -5 -28 -12 -28 -31 0 -28 30 -41 58 -26 13 7 22 7 30 -1 16 -16
17 65 2 93 -13 23 -62 26 -80 4z m70 -54 c0 -14 -28 -33 -45 -29 -24 5 -20 22
7 30 34 9 38 9 38 -1z"/>
<path d="M1930 691 c0 -74 2 -81 20 -81 17 0 20 7 21 53 1 56 2 55 19 -10 8
-31 16 -43 29 -43 13 0 21 14 32 58 l14 57 3 -57 c3 -50 6 -58 22 -58 18 0 20
7 20 80 l0 80 -35 0 c-32 0 -35 -3 -41 -37 -10 -59 -17 -62 -29 -13 -10 41
-14 45 -43 48 l-32 3 0 -80z"/>
<path d="M2220 690 c0 -47 4 -80 10 -80 6 0 10 33 10 80 0 47 -4 80 -10 80 -6
0 -10 -33 -10 -80z"/>
<path d="M2290 690 c0 -47 4 -80 10 -80 6 0 10 33 10 80 0 47 -4 80 -10 80 -6
0 -10 -33 -10 -80z"/>
<path d="M2163 670 c0 -36 2 -50 4 -32 2 17 2 47 0 65 -2 17 -4 3 -4 -33z"/>
<path d="M2379 720 c-25 -15 -32 -58 -14 -86 18 -28 65 -33 85 -9 15 17 7 19
-21 5 -13 -8 -25 -7 -39 0 -33 18 -23 30 25 30 37 0 45 3 45 18 0 22 -30 52
-51 52 -8 0 -21 -5 -30 -10z m59 -27 c2 -9 -8 -13 -32 -13 -34 0 -44 8 -29 24
11 11 56 2 61 -11z"/>
<path d="M2512 670 l1 -65 7 50 c4 28 3 57 -1 65 -5 9 -8 -11 -7 -50z"/>
<path d="M2535 720 c-3 -5 1 -10 9 -10 9 0 16 5 16 10 0 6 -4 10 -9 10 -6 0
-13 -4 -16 -10z"/>
<path d="M2606 715 c-21 -22 -10 -43 28 -53 17 -5 31 -15 31 -22 0 -22 -30
-24 -50 -4 -16 17 -17 17 -13 -2 5 -27 63 -32 77 -7 12 24 3 38 -33 50 -46 15
-47 37 -2 30 32 -5 36 -4 26 8 -16 19 -45 19 -64 0z"/>
<path d="M285 638 c-45 -69 -79 -155 -99 -250 -23 -110 -22 -128 9 -128 25 0
25 1 25 78 0 93 28 202 75 290 18 34 31 62 29 62 -2 0 -19 -24 -39 -52z"/>
<path d="M1495 616 c42 -84 66 -186 68 -283 1 -69 2 -73 24 -73 19 0 23 5 23
30 0 97 -72 304 -128 370 -15 18 -12 5 13 -44z"/>
<path d="M1930 415 c0 -78 2 -85 20 -85 16 0 20 7 20 35 0 33 2 35 35 35 24 0
35 5 35 15 0 10 -11 15 -35 15 -24 0 -35 5 -35 15 0 11 11 15 40 15 33 0 40 3
40 20 0 18 -7 20 -60 20 l-60 0 0 -85z"/>
<path d="M2410 490 c0 -5 5 -10 10 -10 6 0 10 5 10 10 0 6 -4 10 -10 10 -5 0
-10 -4 -10 -10z"/>
<path d="M2497 493 c-4 -3 -7 -14 -7 -24 0 -9 -6 -20 -12 -23 -10 -5 -10 -7 0
-12 7 -3 13 -27 14 -57 l2 -52 3 49 c3 31 11 54 21 63 16 12 16 12 0 13 -22 0
-24 18 -3 26 8 4 15 10 15 15 0 10 -24 12 -33 2z"/>
<path d="M2560 490 c0 -5 5 -10 10 -10 6 0 10 5 10 10 0 6 -4 10 -10 10 -5 0
-10 -4 -10 -10z"/>
<path d="M2333 470 c-10 -23 -9 -62 3 -117 4 -22 34 -33 34 -13 0 6 -4 10 -10
10 -15 0 -12 77 3 83 9 4 9 8 1 14 -7 4 -14 17 -16 28 -4 18 -6 18 -15 -5z"/>
<path d="M2915 473 c-4 -13 -12 -23 -18 -23 -7 0 -7 -4 1 -12 7 -7 12 -31 12
-55 0 -42 20 -67 38 -48 4 4 1 10 -5 12 -16 6 -17 75 -1 91 9 9 9 12 1 12 -7
0 -14 10 -16 23 l-4 22 -8 -22z"/>
<path d="M2100 431 c-23 -44 1 -101 43 -101 39 0 65 78 35 108 -19 19 -66 15
-78 -7z m64 -7 c19 -19 20 -35 3 -58 -20 -27 -51 -17 -55 17 -3 27 12 57 29
57 4 0 15 -7 23 -16z"/>
<path d="M2240 387 c0 -36 4 -56 10 -52 6 3 10 26 10 51 0 37 4 46 23 54 19 8
18 9 -10 7 l-33 -1 0 -59z"/>
<path d="M2410 390 c0 -33 4 -60 10 -60 6 0 10 27 10 60 0 33 -4 60 -10 60 -6
0 -10 -27 -10 -60z"/>
<path d="M2560 390 c0 -33 4 -60 10 -60 6 0 10 27 10 60 0 33 -4 60 -10 60 -6
0 -10 -27 -10 -60z"/>
<path d="M2640 434 c-30 -35 -6 -104 35 -104 19 0 50 28 41 37 -5 4 -11 2 -13
-4 -7 -18 -50 -16 -57 3 -18 46 10 87 45 66 26 -16 34 -15 19 3 -16 20 -54 19
-70 -1z"/>
<path d="M2770 435 c-15 -18 -7 -19 20 -3 16 10 23 10 37 -4 18 -19 16 -20
-39 -32 -21 -5 -28 -12 -28 -31 0 -28 30 -41 58 -26 13 7 22 7 30 -1 16 -16
17 65 2 93 -13 23 -62 26 -80 4z m70 -54 c0 -14 -28 -33 -45 -29 -24 5 -20 22
7 30 34 9 38 9 38 -1z"/>
<path d="M2993 390 c0 -36 2 -50 4 -32 2 17 2 47 0 65 -2 17 -4 3 -4 -33z"/>
<path d="M3060 431 c-23 -44 1 -101 43 -101 39 0 65 78 35 108 -19 19 -66 15
-78 -7z m64 -7 c19 -19 20 -35 3 -58 -20 -27 -51 -17 -55 17 -3 27 12 57 29
57 4 0 15 -7 23 -16z"/>
<path d="M3200 388 c0 -37 4 -57 10 -53 6 3 10 26 10 50 0 30 5 45 16 49 26
10 43 -12 47 -62 3 -36 4 -33 3 13 l-1 60 -42 1 -43 2 0 -60z"/>
<path d="M936 364 c-93 -62 -145 -131 -146 -194 0 -21 5 -17 29 25 16 28 41
61 56 75 21 19 16 8 -19 -43 -25 -38 -46 -72 -46 -77 0 -37 66 0 115 64 29 38
68 140 63 165 -3 14 -11 11 -52 -15z"/>
<path d="M1930 140 c0 -79 0 -80 25 -80 25 0 25 1 25 80 0 79 0 80 -25 80 -25
0 -25 -1 -25 -80z"/>
<path d="M2250 188 c0 -25 -3 -29 -12 -20 -29 29 -68 -2 -68 -52 0 -42 16 -56
63 -54 l37 1 0 79 c0 45 -4 78 -10 78 -5 0 -10 -14 -10 -32z m-2 -64 c5 -55
-51 -71 -64 -18 -8 30 12 56 40 52 15 -2 22 -11 24 -34z"/>
<path d="M2030 118 c0 -70 18 -78 22 -10 3 43 5 47 28 47 23 0 26 -5 31 -50
l6 -50 1 58 c2 61 3 59 -55 61 l-33 1 0 -57z"/>
<path d="M2330 160 c-24 -24 -26 -63 -4 -85 19 -19 75 -17 82 3 3 10 -2 10
-22 1 -20 -9 -29 -9 -41 1 -26 21 -17 30 30 30 33 0 45 4 45 15 0 19 -36 55
-55 55 -8 0 -24 -9 -35 -20z m68 -17 c2 -9 -8 -13 -32 -13 -34 0 -44 8 -29 24
11 11 56 2 61 -11z"/>
<path d="M2461 175 c3 -5 11 -22 18 -37 13 -25 12 -30 -4 -48 -10 -11 -15 -23
-12 -26 4 -4 15 4 25 16 l19 24 12 -22 c6 -12 16 -22 22 -22 6 0 2 13 -7 29
-16 28 -16 31 0 56 22 33 16 42 -9 15 l-18 -20 -25 22 c-14 13 -23 19 -21 13z"/>
</g>
</svg>
